<mxfile host="65bd71144e">
    <diagram id="OGVIc4mFd17MXtIgW8Nf" name="Page-1">
        <mxGraphModel dx="940" dy="368" grid="1" gridSize="10" guides="1" tooltips="1" connect="1" arrows="1" fold="1" page="1" pageScale="1" pageWidth="850" pageHeight="1100" math="0" shadow="0">
            <root>
                <mxCell id="0"/>
                <mxCell id="1" parent="0"/>
                <mxCell id="2" value="end" style="strokeWidth=2;html=1;shape=mxgraph.flowchart.terminator;whiteSpace=wrap;fontColor=default;labelBackgroundColor=none;" vertex="1" parent="1">
                    <mxGeometry x="150" y="1060" width="100" height="60" as="geometry"/>
                </mxCell>
                <mxCell id="10" style="edgeStyle=none;html=1;entryX=0.5;entryY=0;entryDx=0;entryDy=0;fontColor=default;labelBackgroundColor=none;" edge="1" parent="1" source="3" target="4">
                    <mxGeometry relative="1" as="geometry"/>
                </mxCell>
                <mxCell id="3" value="start" style="strokeWidth=2;html=1;shape=mxgraph.flowchart.terminator;whiteSpace=wrap;fontColor=default;labelBackgroundColor=none;" vertex="1" parent="1">
                    <mxGeometry x="150" y="50" width="100" height="60" as="geometry"/>
                </mxCell>
                <mxCell id="11" style="edgeStyle=none;html=1;entryX=0.5;entryY=0;entryDx=0;entryDy=0;entryPerimeter=0;fontColor=default;labelBackgroundColor=none;exitX=0.5;exitY=1;exitDx=0;exitDy=0;exitPerimeter=0;" edge="1" parent="1" source="80" target="5">
                    <mxGeometry relative="1" as="geometry">
                        <mxPoint x="200" y="350" as="sourcePoint"/>
                    </mxGeometry>
                </mxCell>
                <mxCell id="81" style="edgeStyle=none;html=1;entryX=0.5;entryY=0;entryDx=0;entryDy=0;entryPerimeter=0;labelBackgroundColor=none;fontColor=default;" edge="1" parent="1" source="4" target="80">
                    <mxGeometry relative="1" as="geometry"/>
                </mxCell>
                <mxCell id="4" value="&lt;div style=&quot;font-family: consolas, &amp;quot;courier new&amp;quot;, monospace; font-size: 14px; line-height: 19px;&quot;&gt;&lt;div&gt;Credits&amp;nbsp;&lt;/div&gt;&lt;div&gt;Grade_Level&amp;nbsp;&lt;/div&gt;&lt;div&gt;Grade_Point&amp;nbsp;&lt;/div&gt;&lt;div&gt;&lt;div style=&quot;font-family: &amp;quot;consolas&amp;quot; , &amp;quot;courier new&amp;quot; , monospace ; line-height: 19px&quot;&gt;&lt;div&gt;Students_Marks&amp;nbsp;&lt;/div&gt;&lt;/div&gt;&lt;/div&gt;&lt;/div&gt;" style="rounded=1;whiteSpace=wrap;html=1;absoluteArcSize=1;arcSize=14;strokeWidth=2;fontColor=default;labelBackgroundColor=none;" vertex="1" parent="1">
                    <mxGeometry x="102.5" y="160" width="195" height="90" as="geometry"/>
                </mxCell>
                <mxCell id="12" style="edgeStyle=none;html=1;entryX=0;entryY=0.5;entryDx=0;entryDy=0;entryPerimeter=0;fontColor=default;labelBackgroundColor=none;" edge="1" parent="1" source="5" target="6">
                    <mxGeometry relative="1" as="geometry"/>
                </mxCell>
                <mxCell id="19" style="edgeStyle=none;html=1;fontColor=default;entryX=0.5;entryY=0;entryDx=0;entryDy=0;entryPerimeter=0;labelBackgroundColor=none;" edge="1" parent="1" source="5" target="2">
                    <mxGeometry relative="1" as="geometry">
                        <mxPoint x="200" y="1100" as="targetPoint"/>
                    </mxGeometry>
                </mxCell>
                <mxCell id="5" value="&lt;div style=&quot;font-family: consolas, &amp;quot;courier new&amp;quot;, monospace; font-size: 14px; line-height: 19px;&quot;&gt;i &lt;span style=&quot;&quot;&gt;in&lt;/span&gt; Students_Marks&lt;/div&gt;" style="strokeWidth=2;html=1;shape=mxgraph.flowchart.decision;whiteSpace=wrap;labelBackgroundColor=none;fontColor=default;" vertex="1" parent="1">
                    <mxGeometry x="150" y="390" width="100" height="100" as="geometry"/>
                </mxCell>
                <mxCell id="13" style="edgeStyle=none;html=1;entryX=0;entryY=0.5;entryDx=0;entryDy=0;fontColor=default;labelBackgroundColor=none;" edge="1" parent="1" source="6" target="7">
                    <mxGeometry relative="1" as="geometry"/>
                </mxCell>
                <mxCell id="6" value="&lt;div style=&quot;font-family: consolas, &amp;quot;courier new&amp;quot;, monospace; font-size: 14px; line-height: 19px;&quot;&gt;i.ljust(&lt;span style=&quot;&quot;&gt;10&lt;/span&gt;)&lt;/div&gt;" style="strokeWidth=2;html=1;shape=mxgraph.flowchart.display;whiteSpace=wrap;labelBackgroundColor=none;fontColor=default;" vertex="1" parent="1">
                    <mxGeometry x="325" y="410" width="100" height="60" as="geometry"/>
                </mxCell>
                <mxCell id="14" style="edgeStyle=none;html=1;entryX=0.5;entryY=0;entryDx=0;entryDy=0;entryPerimeter=0;fontColor=default;labelBackgroundColor=none;" edge="1" parent="1" source="7" target="8">
                    <mxGeometry relative="1" as="geometry"/>
                </mxCell>
                <mxCell id="7" value="&lt;div style=&quot;font-family: consolas, &amp;quot;courier new&amp;quot;, monospace; font-size: 14px; line-height: 19px;&quot;&gt;&lt;div&gt;sum_grade = &lt;span style=&quot;&quot;&gt;0&lt;/span&gt;&lt;/div&gt;&lt;div&gt;&amp;nbsp; &amp;nbsp; sum_credit = &lt;span style=&quot;&quot;&gt;0&lt;/span&gt;&lt;/div&gt;&lt;/div&gt;" style="rounded=1;whiteSpace=wrap;html=1;absoluteArcSize=1;arcSize=14;strokeWidth=2;labelBackgroundColor=none;fontColor=default;" vertex="1" parent="1">
                    <mxGeometry x="490" y="405" width="170" height="70" as="geometry"/>
                </mxCell>
                <mxCell id="18" style="edgeStyle=none;html=1;entryX=0.5;entryY=0;entryDx=0;entryDy=0;fontColor=default;labelBackgroundColor=none;" edge="1" parent="1" source="8" target="9">
                    <mxGeometry relative="1" as="geometry"/>
                </mxCell>
                <mxCell id="67" style="edgeStyle=none;html=1;labelBackgroundColor=none;fontColor=default;" edge="1" parent="1" source="8" target="68">
                    <mxGeometry relative="1" as="geometry">
                        <mxPoint x="390" y="580" as="targetPoint"/>
                    </mxGeometry>
                </mxCell>
                <mxCell id="8" value="&lt;div style=&quot;font-family: consolas, &amp;quot;courier new&amp;quot;, monospace; font-size: 14px; line-height: 19px;&quot;&gt;value &lt;span style=&quot;&quot;&gt;in&lt;/span&gt; Students_Marks[&lt;span style=&quot;&quot;&gt;&quot;John&quot;&lt;/span&gt;]&lt;/div&gt;" style="strokeWidth=2;html=1;shape=mxgraph.flowchart.decision;whiteSpace=wrap;labelBackgroundColor=none;fontColor=default;" vertex="1" parent="1">
                    <mxGeometry x="525" y="530" width="100" height="100" as="geometry"/>
                </mxCell>
                <mxCell id="46" style="edgeStyle=none;html=1;entryX=0.5;entryY=0;entryDx=0;entryDy=0;entryPerimeter=0;labelBackgroundColor=none;fontColor=default;" edge="1" parent="1" source="9" target="43">
                    <mxGeometry relative="1" as="geometry"/>
                </mxCell>
                <mxCell id="9" value="&lt;div style=&quot;font-family: consolas, &amp;quot;courier new&amp;quot;, monospace; font-size: 14px; line-height: 19px;&quot;&gt;&lt;div&gt;sum_grade = &lt;span style=&quot;&quot;&gt;0&lt;/span&gt;&lt;/div&gt;&lt;div&gt;&amp;nbsp; &amp;nbsp; sum_credit = &lt;span style=&quot;&quot;&gt;0&lt;/span&gt;&lt;/div&gt;&lt;/div&gt;" style="rounded=1;whiteSpace=wrap;html=1;absoluteArcSize=1;arcSize=14;strokeWidth=2;labelBackgroundColor=none;fontColor=default;" vertex="1" parent="1">
                    <mxGeometry x="490" y="685" width="170" height="70" as="geometry"/>
                </mxCell>
                <mxCell id="31" style="edgeStyle=none;html=1;entryX=0.5;entryY=0;entryDx=0;entryDy=0;entryPerimeter=0;fontColor=default;labelBackgroundColor=none;" edge="1" parent="1" source="16" target="25">
                    <mxGeometry relative="1" as="geometry"/>
                </mxCell>
                <mxCell id="16" value="&lt;div style=&quot;font-family: consolas, &amp;quot;courier new&amp;quot;, monospace; font-size: 14px; line-height: 19px;&quot;&gt;grade,point &lt;span style=&quot;&quot;&gt;in&lt;/span&gt; Grade_Level.items()&lt;/div&gt;" style="strokeWidth=2;html=1;shape=mxgraph.flowchart.decision;whiteSpace=wrap;labelBackgroundColor=none;fontColor=default;" vertex="1" parent="1">
                    <mxGeometry x="420" y="810" width="100" height="100" as="geometry"/>
                </mxCell>
                <mxCell id="32" style="edgeStyle=none;html=1;entryX=0.5;entryY=0;entryDx=0;entryDy=0;entryPerimeter=0;fontColor=default;labelBackgroundColor=none;" edge="1" parent="1" source="22" target="26">
                    <mxGeometry relative="1" as="geometry"/>
                </mxCell>
                <mxCell id="22" value="&lt;div style=&quot;font-family: consolas, &amp;quot;courier new&amp;quot;, monospace; font-size: 14px; line-height: 19px;&quot;&gt;sub,credis_sub &lt;span style=&quot;&quot;&gt;in&lt;/span&gt; Credits.items()&lt;/div&gt;" style="strokeWidth=2;html=1;shape=mxgraph.flowchart.decision;whiteSpace=wrap;labelBackgroundColor=none;fontColor=default;" vertex="1" parent="1">
                    <mxGeometry x="625" y="810" width="100" height="100" as="geometry"/>
                </mxCell>
                <mxCell id="35" style="edgeStyle=none;html=1;entryX=0.5;entryY=0;entryDx=0;entryDy=0;fontColor=default;labelBackgroundColor=none;" edge="1" parent="1" source="25" target="33">
                    <mxGeometry relative="1" as="geometry"/>
                </mxCell>
                <mxCell id="40" style="edgeStyle=none;html=1;entryX=0;entryY=0.5;entryDx=0;entryDy=0;entryPerimeter=0;labelBackgroundColor=none;fontColor=default;" edge="1" parent="1" source="25" target="39">
                    <mxGeometry relative="1" as="geometry"/>
                </mxCell>
                <mxCell id="25" value="&lt;div style=&quot;font-family: consolas, &amp;quot;courier new&amp;quot;, monospace; font-size: 14px; line-height: 19px;&quot;&gt;Students_Marks[i][value] &amp;gt;= point&lt;/div&gt;" style="strokeWidth=2;html=1;shape=mxgraph.flowchart.decision;whiteSpace=wrap;labelBackgroundColor=none;fontColor=default;" vertex="1" parent="1">
                    <mxGeometry x="420" y="950" width="100" height="100" as="geometry"/>
                </mxCell>
                <mxCell id="36" style="edgeStyle=none;html=1;entryX=0.5;entryY=0;entryDx=0;entryDy=0;fontColor=default;labelBackgroundColor=none;" edge="1" parent="1" source="26" target="34">
                    <mxGeometry relative="1" as="geometry"/>
                </mxCell>
                <mxCell id="41" style="edgeStyle=none;html=1;entryX=1;entryY=0.5;entryDx=0;entryDy=0;entryPerimeter=0;labelBackgroundColor=none;fontColor=default;" edge="1" parent="1" source="26" target="39">
                    <mxGeometry relative="1" as="geometry"/>
                </mxCell>
                <mxCell id="26" value="&lt;div style=&quot;font-family: consolas, &amp;quot;courier new&amp;quot;, monospace; font-size: 14px; line-height: 19px;&quot;&gt;sub == value:&lt;/div&gt;" style="strokeWidth=2;html=1;shape=mxgraph.flowchart.decision;whiteSpace=wrap;labelBackgroundColor=none;fontColor=default;" vertex="1" parent="1">
                    <mxGeometry x="625" y="950" width="100" height="100" as="geometry"/>
                </mxCell>
                <mxCell id="60" style="edgeStyle=none;html=1;entryX=0;entryY=0.5;entryDx=0;entryDy=0;entryPerimeter=0;labelBackgroundColor=none;fontColor=default;" edge="1" parent="1" source="33" target="59">
                    <mxGeometry relative="1" as="geometry">
                        <Array as="points">
                            <mxPoint x="470" y="1245"/>
                        </Array>
                    </mxGeometry>
                </mxCell>
                <mxCell id="33" value="&lt;div style=&quot;font-family: consolas, &amp;quot;courier new&amp;quot;, monospace; font-size: 14px; line-height: 19px;&quot;&gt;&lt;div&gt;resultStr = grade&lt;/div&gt;&lt;div&gt;resultInt = Grade_Point[grade]&lt;/div&gt;&lt;div&gt;&lt;span style=&quot;&quot;&gt;break&lt;/span&gt;&lt;/div&gt;&lt;/div&gt;" style="rounded=1;whiteSpace=wrap;html=1;absoluteArcSize=1;arcSize=14;strokeWidth=2;labelBackgroundColor=none;fontColor=default;" vertex="1" parent="1">
                    <mxGeometry x="405" y="1100" width="130" height="60" as="geometry"/>
                </mxCell>
                <mxCell id="61" style="edgeStyle=none;html=1;entryX=1;entryY=0.5;entryDx=0;entryDy=0;entryPerimeter=0;labelBackgroundColor=none;fontColor=default;" edge="1" parent="1" source="34" target="59">
                    <mxGeometry relative="1" as="geometry">
                        <Array as="points">
                            <mxPoint x="675" y="1245"/>
                        </Array>
                    </mxGeometry>
                </mxCell>
                <mxCell id="34" value="&lt;div style=&quot;font-family: consolas, &amp;quot;courier new&amp;quot;, monospace; font-size: 14px; line-height: 19px;&quot;&gt;&lt;div&gt;credis = credis_sub&lt;/div&gt;&lt;div&gt;&lt;span style=&quot;&quot;&gt;break&lt;/span&gt;&lt;/div&gt;&lt;/div&gt;" style="rounded=1;whiteSpace=wrap;html=1;absoluteArcSize=1;arcSize=14;strokeWidth=2;labelBackgroundColor=none;fontColor=default;" vertex="1" parent="1">
                    <mxGeometry x="610" y="1100" width="130" height="60" as="geometry"/>
                </mxCell>
                <mxCell id="42" style="edgeStyle=none;html=1;labelBackgroundColor=none;fontColor=default;entryX=0.5;entryY=1;entryDx=0;entryDy=0;entryPerimeter=0;" edge="1" parent="1" source="39" target="43">
                    <mxGeometry relative="1" as="geometry">
                        <mxPoint x="575" y="860" as="targetPoint"/>
                    </mxGeometry>
                </mxCell>
                <mxCell id="39" value="" style="verticalLabelPosition=bottom;verticalAlign=top;html=1;shape=mxgraph.flowchart.on-page_reference;labelBackgroundColor=none;fontColor=default;" vertex="1" parent="1">
                    <mxGeometry x="560" y="985" width="30" height="30" as="geometry"/>
                </mxCell>
                <mxCell id="47" style="edgeStyle=none;html=1;labelBackgroundColor=none;fontColor=default;entryX=0.5;entryY=0;entryDx=0;entryDy=0;entryPerimeter=0;" edge="1" parent="1" source="43" target="22">
                    <mxGeometry relative="1" as="geometry">
                        <mxPoint x="680" y="805" as="targetPoint"/>
                        <Array as="points">
                            <mxPoint x="670" y="805"/>
                        </Array>
                    </mxGeometry>
                </mxCell>
                <mxCell id="48" style="edgeStyle=none;html=1;entryX=0.5;entryY=0;entryDx=0;entryDy=0;entryPerimeter=0;labelBackgroundColor=none;fontColor=default;" edge="1" parent="1" source="43" target="16">
                    <mxGeometry relative="1" as="geometry">
                        <Array as="points">
                            <mxPoint x="480" y="805"/>
                        </Array>
                    </mxGeometry>
                </mxCell>
                <mxCell id="43" value="" style="strokeWidth=2;html=1;shape=mxgraph.flowchart.start_2;whiteSpace=wrap;labelBackgroundColor=none;fontColor=default;" vertex="1" parent="1">
                    <mxGeometry x="560" y="790" width="30" height="30" as="geometry"/>
                </mxCell>
                <mxCell id="62" style="edgeStyle=none;html=1;labelBackgroundColor=none;fontColor=default;entryX=0.5;entryY=0;entryDx=0;entryDy=0;" edge="1" parent="1" source="59" target="63">
                    <mxGeometry relative="1" as="geometry">
                        <mxPoint x="575" y="1300" as="targetPoint"/>
                    </mxGeometry>
                </mxCell>
                <mxCell id="59" value="" style="strokeWidth=2;html=1;shape=mxgraph.flowchart.start_2;whiteSpace=wrap;labelBackgroundColor=none;fontColor=default;" vertex="1" parent="1">
                    <mxGeometry x="560" y="1230" width="30" height="30" as="geometry"/>
                </mxCell>
                <mxCell id="65" style="edgeStyle=none;html=1;entryX=0.5;entryY=0;entryDx=0;entryDy=0;entryPerimeter=0;labelBackgroundColor=none;fontColor=default;" edge="1" parent="1" source="63" target="64">
                    <mxGeometry relative="1" as="geometry"/>
                </mxCell>
                <mxCell id="63" value="&lt;div style=&quot;font-family: consolas, &amp;quot;courier new&amp;quot;, monospace; font-size: 14px; line-height: 19px;&quot;&gt;&lt;div&gt;sum_grade = (sum_grade + resultInt * credis) &lt;/div&gt;&lt;div&gt;&amp;nbsp; &amp;nbsp; &amp;nbsp; &amp;nbsp; sum_credit = (sum_credit + credis)&lt;/div&gt;&lt;div&gt;&amp;nbsp; &amp;nbsp; &amp;nbsp; &amp;nbsp; &lt;span style=&quot;&quot;&gt;sum&lt;/span&gt; = (sum_grade/ sum_credit) &amp;nbsp; &lt;/div&gt;&lt;/div&gt;" style="rounded=1;whiteSpace=wrap;html=1;absoluteArcSize=1;arcSize=14;strokeWidth=2;labelBackgroundColor=none;fontColor=default;" vertex="1" parent="1">
                    <mxGeometry x="457.5" y="1320" width="235" height="100" as="geometry"/>
                </mxCell>
                <mxCell id="66" style="edgeStyle=none;html=1;labelBackgroundColor=none;fontColor=default;" edge="1" parent="1" source="64">
                    <mxGeometry relative="1" as="geometry">
                        <mxPoint x="580" y="500" as="targetPoint"/>
                        <Array as="points">
                            <mxPoint x="760" y="1505"/>
                            <mxPoint x="760" y="500"/>
                        </Array>
                    </mxGeometry>
                </mxCell>
                <mxCell id="64" value="&lt;div style=&quot;font-family: consolas, &amp;quot;courier new&amp;quot;, monospace; font-size: 14px; line-height: 19px;&quot;&gt;sub, &lt;span style=&quot;&quot;&gt;&quot;:&quot;&lt;/span&gt;,resultStr.ljust(&lt;span style=&quot;&quot;&gt;5&lt;/span&gt;)&lt;/div&gt;" style="strokeWidth=2;html=1;shape=mxgraph.flowchart.display;whiteSpace=wrap;labelBackgroundColor=none;fontColor=default;" vertex="1" parent="1">
                    <mxGeometry x="507.5" y="1470" width="135" height="70" as="geometry"/>
                </mxCell>
                <mxCell id="69" style="edgeStyle=none;html=1;labelBackgroundColor=none;fontColor=default;exitX=0;exitY=0.5;exitDx=0;exitDy=0;exitPerimeter=0;" edge="1" parent="1" source="68">
                    <mxGeometry relative="1" as="geometry">
                        <mxPoint x="200" y="360" as="targetPoint"/>
                        <mxPoint x="270" y="580" as="sourcePoint"/>
                        <Array as="points">
                            <mxPoint x="270" y="580"/>
                            <mxPoint x="270" y="470"/>
                            <mxPoint x="270" y="360"/>
                        </Array>
                    </mxGeometry>
                </mxCell>
                <mxCell id="68" value="&lt;div style=&quot;font-family: consolas, &amp;quot;courier new&amp;quot;, monospace; font-size: 14px; line-height: 19px;&quot;&gt;&lt;span style=&quot;&quot;&gt;'GPA: &lt;/span&gt;&lt;span style=&quot;&quot;&gt;{:.2f}&lt;/span&gt;&lt;span style=&quot;&quot;&gt;'&lt;/span&gt;.format(&lt;span style=&quot;&quot;&gt;sum&lt;/span&gt;)&lt;/div&gt;" style="strokeWidth=2;html=1;shape=mxgraph.flowchart.display;whiteSpace=wrap;labelBackgroundColor=none;fontColor=default;" vertex="1" parent="1">
                    <mxGeometry x="295" y="545" width="125" height="70" as="geometry"/>
                </mxCell>
                <mxCell id="70" value="true" style="text;html=1;align=center;verticalAlign=middle;resizable=0;points=[];autosize=1;strokeColor=none;fillColor=none;fontColor=default;labelBackgroundColor=none;" vertex="1" parent="1">
                    <mxGeometry x="260" y="420" width="40" height="20" as="geometry"/>
                </mxCell>
                <mxCell id="71" value="true" style="text;html=1;align=center;verticalAlign=middle;resizable=0;points=[];autosize=1;strokeColor=none;fillColor=none;fontColor=default;labelBackgroundColor=none;" vertex="1" parent="1">
                    <mxGeometry x="570" y="630" width="40" height="20" as="geometry"/>
                </mxCell>
                <mxCell id="72" value="false" style="text;html=1;align=center;verticalAlign=middle;resizable=0;points=[];autosize=1;strokeColor=none;fillColor=none;fontColor=default;labelBackgroundColor=none;" vertex="1" parent="1">
                    <mxGeometry x="160" y="510" width="40" height="20" as="geometry"/>
                </mxCell>
                <mxCell id="73" value="false" style="text;html=1;align=center;verticalAlign=middle;resizable=0;points=[];autosize=1;strokeColor=none;fillColor=none;fontColor=default;labelBackgroundColor=none;" vertex="1" parent="1">
                    <mxGeometry x="460" y="550" width="40" height="20" as="geometry"/>
                </mxCell>
                <mxCell id="74" value="true" style="text;html=1;align=center;verticalAlign=middle;resizable=0;points=[];autosize=1;strokeColor=none;fillColor=none;fontColor=default;labelBackgroundColor=none;" vertex="1" parent="1">
                    <mxGeometry x="460" y="910" width="40" height="20" as="geometry"/>
                </mxCell>
                <mxCell id="75" value="true" style="text;html=1;align=center;verticalAlign=middle;resizable=0;points=[];autosize=1;strokeColor=none;fillColor=none;fontColor=default;labelBackgroundColor=none;" vertex="1" parent="1">
                    <mxGeometry x="670" y="910" width="40" height="20" as="geometry"/>
                </mxCell>
                <mxCell id="76" value="true" style="text;html=1;align=center;verticalAlign=middle;resizable=0;points=[];autosize=1;strokeColor=none;fillColor=none;fontColor=default;labelBackgroundColor=none;" vertex="1" parent="1">
                    <mxGeometry x="670" y="1060" width="40" height="20" as="geometry"/>
                </mxCell>
                <mxCell id="77" value="true" style="text;html=1;align=center;verticalAlign=middle;resizable=0;points=[];autosize=1;strokeColor=none;fillColor=none;fontColor=default;labelBackgroundColor=none;" vertex="1" parent="1">
                    <mxGeometry x="470" y="1060" width="40" height="20" as="geometry"/>
                </mxCell>
                <mxCell id="78" value="false" style="text;html=1;align=center;verticalAlign=middle;resizable=0;points=[];autosize=1;strokeColor=none;fillColor=none;fontColor=default;labelBackgroundColor=none;" vertex="1" parent="1">
                    <mxGeometry x="510" y="970" width="40" height="20" as="geometry"/>
                </mxCell>
                <mxCell id="79" value="false" style="text;html=1;align=center;verticalAlign=middle;resizable=0;points=[];autosize=1;strokeColor=none;fillColor=none;fontColor=default;labelBackgroundColor=none;" vertex="1" parent="1">
                    <mxGeometry x="590" y="970" width="40" height="20" as="geometry"/>
                </mxCell>
                <mxCell id="80" value="&lt;div style=&quot;font-family: consolas, &amp;quot;courier new&amp;quot;, monospace; font-size: 14px; line-height: 19px;&quot;&gt;&lt;span style=&quot;&quot;&gt;&quot;Students Grade &amp;amp; GPA&quot;&lt;/span&gt;&lt;/div&gt;" style="strokeWidth=2;html=1;shape=mxgraph.flowchart.display;whiteSpace=wrap;labelBackgroundColor=none;fontColor=default;" vertex="1" parent="1">
                    <mxGeometry x="150" y="280" width="100" height="60" as="geometry"/>
                </mxCell>
            </root>
        </mxGraphModel>
    </diagram>
</mxfile>